<svg width="2633" height="1239" viewBox="0 0 2633 1239" fill="none" xmlns="http://www.w3.org/2000/svg">
<path d="M1413.73 435.993L1411.87 437.848C1412.8 437.848 1413.73 436.92 1413.73 435.993Z" fill="#7D7F68"/>
<path d="M1486.09 500.928C1493.51 495.362 1505.57 488.868 1512.99 481.447L1434.14 410.946C1427.64 418.367 1423.01 430.427 1415.58 435.993L1486.09 500.928Z" fill="#C7A008"/>
<path fill-rule="evenodd" clip-rule="evenodd" d="M2274.39 744.721L2230.24 621.205L2111 775.362L1980.65 762.003L2218.41 491.446L2114.71 210.695L2219.59 262.873L2273.48 392.049L2357.45 281.337L2496.37 293.794L2317.27 520.128L2412.36 796.763L2274.39 744.721ZM2370.07 529.146L2529.06 853.386L2489.3 876.018L2237.45 781.02L2214.88 717.879L2176.08 799.554L2132.2 824.78L1889 799.857L2144.26 487.626L1999.71 151.405L2045.2 130.761L2254.24 223.872L2285.4 298.555L2335.73 232.201L2381.31 212.603L2587.2 254.75L2370.07 529.146Z" fill="#1D2C5E"/>
<path d="M2272.62 599.919L2153.39 754.075L2023.04 740.717L2241.09 473.994L2124.33 202.399L2261.97 241.587L2315.86 370.762L2399.83 260.051L2538.75 272.508L2359.66 498.842L2454.75 775.477L2316.77 723.434L2272.62 599.919Z" fill="#FFCB05"/>
<path d="M2237.49 270.204L2117.99 234.204L2095.49 175.704L2270.49 217.204L2292.99 270.204L2317.99 364.704L2292.99 392.704L2237.49 270.204Z" fill="#C7A008"/>
<path d="M2499.99 298.204L2370.99 284.204L2388.49 233.204L2573.49 262.204L2388.49 509.704L2486.49 808.204L2410.99 783.704L2316.99 525.204L2499.99 298.204Z" fill="#C7A008"/>
<path d="M2216.99 610.204L2272.49 598.704V652.204L2158.99 770.704L2111.99 754.704L2216.99 610.204Z" fill="#C7A008"/>
<path fill-rule="evenodd" clip-rule="evenodd" d="M2316.77 723.434L2272.62 599.919L2153.39 754.075L2023.04 740.717L2241.09 473.994L2124.33 202.399L2261.97 241.587L2315.86 370.762L2399.83 260.051L2538.75 272.508L2359.66 498.842L2454.75 775.477L2316.77 723.434ZM2412.46 507.86L2531.69 854.731L2279.84 759.734L2257.27 696.593L2174.58 803.494L1931.38 778.57L2186.64 466.34L2042.09 130.119L2296.63 202.586L2327.79 277.269L2378.11 210.915L2629.58 233.463L2412.46 507.86Z" fill="#3368B0"/>
<path fill-rule="evenodd" clip-rule="evenodd" d="M1535.88 341.501L1498.4 359.241L1504.08 213.342C1598.02 205.412 1714.7 233.692 1761.3 248.823C1849.2 277.363 1864.63 366.064 1861.36 406.848C1863.15 510.759 1817.38 587.897 1794.27 613.477C1724.83 700.059 1626.97 712.79 1586.72 708.333L1467.7 688.269L1535.88 341.501ZM1830.44 644.164C1748.59 745.357 1633.68 761.239 1581.51 755.46L1580.17 755.312L1411.78 726.925L1471.23 424.557L1447.98 435.562L1458.33 169.62L1502.21 146.117C1605.45 137.402 1727.1 187.864 1775.95 203.725C1834.43 222.713 1869.44 262.506 1888.47 303.143C1906.32 341.295 1910.58 380.847 1908.8 408.21C1910.14 523.119 1860.6 610.092 1830.44 644.164Z" fill="#1D2C5E"/>
<path d="M1509.93 663.911L1578.11 317.144L1540.63 334.884L1546.31 188.984C1640.24 181.055 1756.93 209.334 1803.53 224.465C1891.43 253.006 1906.86 341.707 1903.59 382.49C1905.38 486.402 1859.61 563.539 1836.5 589.119C1767.06 675.702 1669.2 688.433 1628.95 683.976L1509.93 663.911Z" fill="#FFCB05"/>
<path d="M1821.81 260.309C1780.24 216.359 1610.66 196.889 1531.07 192.647L1524.57 163.799L1662.86 171.991L1888.75 245.338L1927.25 375.217L1895.56 541.222L1825.99 604.741C1934.77 402.585 1868.53 290.888 1821.81 260.309Z" fill="#C7A008"/>
<path d="M1803.91 635.307C1763.25 567.482 1789.33 449.016 1807.45 398.262L1812.94 463.908L1845.84 596.029L1803.91 635.307Z" fill="#C7A008"/>
<path fill-rule="evenodd" clip-rule="evenodd" d="M1578.11 317.144L1540.63 334.884L1546.31 188.984C1640.25 181.055 1756.93 209.334 1803.53 224.465C1891.43 253.006 1906.86 341.707 1903.59 382.49C1905.38 486.402 1859.61 563.539 1836.5 589.119C1767.06 675.702 1669.2 688.433 1628.95 683.975L1509.93 663.911L1578.11 317.144ZM1872.67 619.807C1790.82 721 1675.91 736.881 1623.73 731.103L1622.4 730.955L1454.01 702.568L1513.46 400.2L1490.21 411.205L1500.56 145.262L1542.32 141.737C1645.55 133.023 1769.33 163.506 1818.18 179.368C1876.65 198.356 1911.67 238.149 1930.69 278.785C1948.55 316.938 1952.81 356.489 1951.03 383.852C1952.37 498.762 1902.83 585.735 1872.67 619.807Z" fill="#3368B0"/>
<path d="M1674.7 519.361L1709.76 348.56L1731.67 343.891L1758.47 371.626L1759.1 417.15L1723.73 496.76L1674.7 519.361Z" fill="white"/>
<path d="M1730.29 507.361C1710.99 523.16 1670.14 551.697 1650.26 560.291L1662.3 504.143L1690.11 380.376L1707.66 306.183L1687.09 318.589L1667.9 401.28L1640.65 523.666L1628.6 579.814C1655.73 570.437 1699.92 542.199 1730.29 507.361Z" fill="#C7A008"/>
<path d="M1755.26 408.34C1760.48 390.924 1757.63 372.071 1755.09 365.406C1750.87 354.299 1738.16 344.937 1727.43 343.619C1724.41 355.51 1720.99 370.583 1719.48 376.528C1722.42 380.01 1728.15 385.172 1730.53 390.034C1733.07 396.699 1736.73 409.187 1730.96 427.984C1724.22 451.345 1717.46 475.085 1705.95 488.72C1729.14 471.838 1743.7 445.933 1755.26 408.34Z" fill="#7D7F68"/>
<path d="M1777.86 419.714C1798.07 349.632 1768.99 285.873 1706.25 306.371L1687.06 389.063L1659.26 512.829L1647.21 568.978C1696.03 548.664 1749.25 517.3 1777.86 419.714V419.714ZM1693.18 497.265C1700.44 463.936 1716.46 391.334 1716.46 391.334C1716.46 391.334 1719.89 376.261 1723.72 358.005C1733.9 360.704 1742.42 367.546 1746.64 378.653C1749.17 385.317 1752.84 397.806 1747.06 416.603C1736.9 455.036 1719.58 478.881 1693.18 497.265V497.265Z" fill="#3368B0"/>
<path d="M1868.49 388.826C1992.99 247.326 2117.82 337.825 2163.49 388.825L2021.49 533.325C2072.69 535.725 2115.15 504.659 2129.99 488.825L2199.49 555.325C2075.09 655.325 1964.32 635.992 1924.49 613.825C1824.49 560.625 1832.86 429.326 1868.49 388.826Z" fill="#FFCB05"/>
<path d="M1944.49 499.13L1939.49 447.63L1961.49 427.13L2010.99 402.63L2046.49 421.13L1961.49 510.63L1944.49 499.13Z" fill="white"/>
<path d="M1897.49 343.13L1990.49 291.63L2074.99 308.63L2122.99 332.63L2165.99 367.13L2186.99 394.13L2130.99 438.318V466.13L2085.74 495.38L2149.99 466.13L2165.99 495.38L2221.99 559.63L2186.99 586.13L2085.74 495.38L2040.49 524.63L2002.99 538.13L2122.99 403.5C2093.99 364.232 1996.8 324.53 1897.49 343.13Z" fill="#C7A008"/>
<path d="M2010.99 455.13C1996.19 427.13 1963.83 436.464 1949.49 444.63L1981.49 415.13H2040.49L2010.99 455.13Z" fill="#C7A008"/>
<path fill-rule="evenodd" clip-rule="evenodd" d="M1960.99 534.825L1946.99 521.325L1936.48 505.825C1918.49 474.825 1928.28 444.64 1938.61 429.706C1968.01 384.695 2014.68 388.35 2036.49 397.325L2050.49 404.825L2065.99 415.825L1960.99 534.825ZM1960.99 444.826C1958.86 447.769 1956.32 453.767 1955.51 462.279C1954.66 471.12 1955.69 482.671 1960.99 496.325L2028.99 421.826C2021.05 419.089 2007.3 417.132 1993.27 420.903C1981.66 424.022 1969.86 431.063 1960.99 444.826Z" fill="#3368B0"/>
<path fill-rule="evenodd" clip-rule="evenodd" d="M2219.69 390.129L2154.97 455.986L2261.59 558.006L2225.17 587.281C2088.92 696.809 1960.45 680.525 1904.9 649.848C1840.87 615.632 1812.25 556.328 1804.99 501.994C1801.37 474.894 1802.85 448.14 1808.15 424.595C1813.29 401.705 1822.75 378.745 1837.71 361.742C1908.82 280.929 1985.82 261.82 2054.19 276.559C2118.36 290.392 2168.11 332.527 2194.03 361.475L2219.69 390.129ZM1924.49 613.825C1960.68 633.968 2055.44 651.77 2165.79 579.826C2176.88 572.596 2188.12 564.458 2199.49 555.325L2129.99 488.825C2129.63 489.203 2129.26 489.589 2128.88 489.983C2122.72 496.29 2112.61 504.644 2099.59 512.343C2079.29 524.345 2051.93 534.753 2021.49 533.325L2163.49 388.825C2157.5 382.143 2150.16 374.783 2141.64 367.355C2139.08 365.13 2136.42 362.898 2133.66 360.677C2075.32 313.732 1971.79 271.42 1868.49 388.826C1832.86 429.326 1824.49 560.625 1924.49 613.825Z" fill="#3368B0"/>
<path d="M0 339.518L111.317 527.829L155.844 485.158L34.3228 304.267L0 339.518Z" fill="url(#paint0_linear_504_161)"/>
<path d="M1345.08 21.3358L1173.47 217.996L1223.56 204.082L1386.83 0L1345.08 21.3358Z" fill="url(#paint1_linear_504_161)"/>
<path d="M710.575 246.753L716.141 368.275L769.017 347.867L753.247 223.562L710.575 246.753Z" fill="url(#paint2_linear_504_161)"/>
<path d="M1204.08 254.174L1170.69 271.8L1173.47 282.931L1252.32 232.839L1218 195.733L1173.47 217.996L1204.08 254.174Z" fill="#1D2C5E"/>
<path d="M1294.06 791.28L957.328 624.304L999.072 591.837L1335.81 768.089L1294.06 791.28Z" fill="#21386E"/>
<path d="M988.868 169.759L937.848 266.234L991.651 250.464L1030.61 146.568L988.868 169.759Z" fill="#1D2C5E"/>
<path d="M525.046 569.573L482.375 599.258C482.375 599.258 491.651 647.496 503.711 680.891C515.77 714.286 543.599 741.188 543.599 741.188C562.152 758.813 583.488 771.8 608.534 779.221C655.844 793.136 709.647 783.859 756.03 754.175C768.089 746.753 784.787 734.694 794.991 724.49C749.536 752.319 525.046 569.573 525.046 569.573Z" fill="url(#paint3_linear_504_161)"/>
<path d="M756.03 358.998L794.991 792.208L956.401 769.017L999.072 746.753L799.629 333.024L758.813 346.939L716.141 368.275L756.03 358.998Z" fill="#1D2C5E"/>
<path d="M153.061 509.276L333.024 916.512L503.711 861.781L545.455 833.952L191.095 462.894L146.568 489.796L111.317 527.829L153.061 509.276Z" fill="url(#paint4_linear_504_161)"/>
<path d="M1329.31 597.403L1335.81 629.87C1370.13 624.304 1399.81 612.245 1429.5 594.62C1448.05 583.488 1556.51 489.638 1563 485C1558.36 487.783 1329.31 597.403 1329.31 597.403Z" fill="#1D2C5E"/>
<path d="M379.861 875L366.874 851L196.187 467L192.477 459L185.056 467H179.49L148.878 483C144.239 475.579 136.818 459.349 132.18 451L63.5344 339L45.9092 307L75.5938 291C103.423 273.375 134.963 257.842 170.213 243C238.859 214.243 308.432 195 372.44 195C393.776 195 414.184 200.217 432.737 203C464.276 206.711 493.961 210.302 518.08 227C554.258 247.408 583.015 285.894 598.785 323C611.772 353.612 614.555 389.894 606.206 427L601.568 443L620.121 435C632.18 425.724 645.167 416.566 659.082 411C683.2 400.796 708.247 395 733.293 395C757.412 395 779.675 401.724 800.084 411H813.071L812.143 403L806.577 339L805.649 323L796.373 331L767.616 339L762.978 235L974.481 163L972.625 243L988.395 251L1034.78 163L1173 283L1178.56 291L1184.13 283C1202.68 265.375 1225.87 253.204 1250.92 243L1261.12 235L1253.7 227L1228.65 195L1387.28 11L1470.77 139L1343.68 211L1315.85 219H1348.32C1408.62 219.928 1462.42 246.473 1498.6 291L1511.59 315L1506.02 323.5L1495.82 331L1485 343L1465.2 379L1459.64 387L1466.13 395L1490.5 427L1526 507L1470.77 555C1443.87 570.77 1412.33 586.651 1376.15 595C1363.16 597.783 1350.18 594.072 1336.26 595L1328.84 603V755L1004.17 595L992.106 587V739L846.466 763L839.972 699L838.117 675L825.13 691C805.649 709.553 784.314 720.796 761.122 731C737.004 741.204 711.957 747 687.839 747C662.792 747 639.601 740.276 618.265 731C579.304 712.447 550.547 678.599 538.488 635C532.922 614.592 531.067 593.263 533.85 571L536.633 555L519.935 571C507.876 582.132 494.889 592.796 480.974 603H476.336L478.191 611L527.356 795L535.705 827L503.238 843L411.401 867L379.861 875ZM420.677 379C416.039 379 411.401 378.072 405.835 379H399.341H390.065L392.848 387L394.703 395L420.677 483L423.46 491L427.171 499L436.447 491L442.941 483C468.915 459.809 477.264 440.685 471.698 411C467.987 393.375 455 382.711 446.651 379C441.085 375.289 430.881 379 420.677 379ZM1127.54 379L1110.84 395L1067.24 435L1057.97 443L1070.03 451L1116.41 467L1130.32 475L1127.54 459C1123.83 439.519 1122.9 421.553 1124.76 403L1127.54 379ZM1316.78 331C1299.16 331 1281.53 333.085 1269.47 347C1250.92 367.408 1247.21 402.881 1260.19 427L1263.91 435L1269.47 443L1277.82 435L1283.39 427L1347.39 355L1352.03 347L1360.38 339H1349.25L1341.83 331C1332.55 329.145 1325.13 331 1316.78 331Z" fill="#FFCB05"/>
<path d="M1249.54 470.315C1252.32 473.098 1249.54 471.243 1252.32 473.098L1271.8 459.184C1269.02 457.328 1266.23 454.545 1263.45 452.69C1235.62 426.716 1243.04 369.202 1260.67 337.662C1212.43 376.623 1215.21 435.993 1249.54 470.315Z" fill="#C7A008"/>
<path d="M1484.23 502.783C1451.76 529.685 1415.58 546.382 1367.35 558.442C1357.14 561.225 1346.01 563.08 1336.73 563.08C1259.74 570.501 1195.73 535.25 1171.61 478.664C1168.83 472.171 1166.05 464.75 1164.19 457.328C1153.06 409.091 1162.34 366.419 1186.46 332.097C1189.24 328.386 1191.09 325.603 1193.88 322.82C1192.95 323.748 1191.09 324.675 1190.17 325.603C1180.89 333.952 1172.54 342.301 1166.05 352.505C1141.93 385.9 1132.65 429.499 1143.78 477.737C1145.64 485.158 1147.5 492.579 1151.21 499.072C1175.32 556.586 1240.26 591.837 1316.33 584.416C1326.53 583.488 1336.73 581.633 1347.87 578.85C1396.1 566.79 1433.21 550.093 1464.75 523.191C1472.17 516.698 1480.52 509.276 1487.94 501.855L1487.01 500.928C1485.16 501.855 1484.23 501.855 1484.23 502.783Z" fill="#C7A008"/>
<path d="M943.414 357.143L1028.76 236.549L1025.05 233.766L942.486 349.722L943.414 357.143Z" fill="#C7A008"/>
<path d="M573.284 317.254C434.137 148.423 184.601 239.332 95.5474 318.182L99.2579 324.675C119.666 312.616 141.93 302.412 164.193 292.208C253.247 254.174 338.59 243.043 406.308 255.102C430.427 257.885 455.473 265.306 477.737 280.148C508.349 297.774 531.54 321.892 545.455 353.432C569.573 409.091 548.238 483.302 491.651 544.527C563.08 478.664 612.245 415.584 573.284 317.254Z" fill="#C7A008"/>
<path d="M856.215 513.915C855.288 511.132 855.288 507.421 854.36 504.638C846.939 476.809 830.241 454.546 807.978 439.703C772.727 415.585 722.635 410.946 673.47 431.354C647.495 442.486 625.232 460.111 606.679 480.52C620.594 468.46 636.364 459.184 653.061 451.763C702.227 430.427 752.319 435.993 787.57 460.111C809.833 474.954 826.531 497.217 833.952 525.046C834.88 527.829 835.807 531.54 835.807 534.323C837.662 545.455 838.59 555.659 838.59 566.79C837.663 599.258 825.603 631.725 806.123 659.555C803.34 664.193 799.629 667.904 795.919 672.542C807.05 662.338 817.254 652.134 825.603 640.074C846.011 612.245 857.143 579.777 858.998 547.31C858.998 536.178 858.071 525.046 856.215 513.915Z" fill="#C7A008"/>
<path d="M719.852 473.098C719.852 473.098 740.26 452.69 739.332 452.69C714.286 451.762 703.154 475.881 702.226 477.737C707.792 474.954 713.358 474.026 719.852 473.098Z" fill="#C7A008"/>
<path d="M767.161 501.855C768.089 505.566 769.017 508.349 769.017 512.059C769.017 517.625 768.089 522.264 765.306 526.902C769.017 525.046 798.701 510.204 787.57 480.52C788.497 482.375 766.234 501.855 767.161 501.855Z" fill="#C7A008"/>
<path d="M652.134 519.481C652.134 507.421 673.469 476.809 679.963 466.605C646.568 487.941 631.725 516.698 631.725 538.961C631.725 577.922 666.048 609.462 706.864 609.462C726.345 609.462 761.595 599.258 784.787 562.152C772.727 570.501 742.115 589.054 725.417 589.054C684.601 589.054 652.134 558.442 652.134 519.481Z" fill="#C7A008"/>
<path d="M938.775 554.731L939.703 711.503L964.749 713.358L959.184 534.323L938.775 554.731Z" fill="#C7A008"/>
<path d="M795.918 255.102V269.017L914.657 233.766L923.006 384.972L943.414 357.143L938.776 205.937L795.918 255.102Z" fill="#C7A008"/>
<path d="M1153.06 308.906L1042.67 206.865L1028.76 236.549L1127.09 328.386L1153.06 308.906Z" fill="#C7A008"/>
<path d="M1136.36 499.072L1005.57 455.473L987.013 475.881L1116.88 527.829C1131.73 555.659 1153.99 579.777 1181.82 596.475C1208.72 613.173 1240.26 623.377 1272.73 626.16V690.167L1293.14 700.371L1299.63 603.896L1136.36 499.072Z" fill="#C7A008"/>
<path d="M1287.57 258.813C1228.2 266.234 1197.59 316.327 1192.95 321.892C1215.21 303.339 1242.11 289.425 1272.73 282.931C1346.01 265.306 1410.02 287.57 1449.91 336.735L1474.95 316.326C1435.06 268.089 1360.85 241.187 1287.57 258.813Z" fill="#C7A008"/>
<path d="M495.362 806.123L435.065 585.343L412.802 601.113L469.388 811.688L495.362 806.123Z" fill="#C7A008"/>
<path d="M479.592 474.954C465.677 489.796 434.138 518.553 416.512 529.685L405.381 495.362L382.189 419.295L367.347 368.275L352.505 386.828L367.347 437.848L390.538 512.987L401.67 547.31C426.716 533.395 461.967 503.711 479.592 474.954Z" fill="#C7A008"/>
<path d="M1340.45 344.156C1320.96 336.735 1294.06 338.59 1279.22 355.288C1275.51 358.998 1269.02 368.275 1267.16 372.913C1281.08 361.781 1307.05 358.998 1322.82 365.492L1340.45 344.156Z" fill="#7D7F68"/>
<path d="M462.894 412.802C461.039 401.67 449.907 392.393 444.341 389.611C435.065 384.972 417.44 384.045 405.38 386.828C407.236 394.249 410.019 403.525 410.946 407.236C415.584 408.163 423.933 409.091 428.571 410.946C434.137 413.729 443.414 419.295 445.269 431.355C448.052 446.197 447.124 461.039 440.631 472.171C458.256 455.473 466.605 436.92 462.894 412.802Z" fill="#7D7F68"/>
<path d="M493.034 412.004C484.685 367.477 426.243 342.43 367.802 373.97L382.644 424.991L405.835 501.058L416.967 535.38C460.566 508.479 504.165 474.156 493.034 412.004ZM435.52 481.577C429.026 461.169 415.112 416.642 415.112 416.642C415.112 416.642 412.329 407.366 408.618 396.234C420.677 394.379 432.737 395.306 442.013 399.944C447.579 402.727 456.856 408.293 458.711 420.353C464.277 444.471 455.928 463.024 435.52 481.577Z" fill="#3C5AA6"/>
<path d="M1370.58 341.503C1338.12 311.818 1288.02 313.674 1258.34 346.141C1228.66 378.609 1230.51 428.701 1262.98 458.386C1265.76 461.169 1268.54 463.024 1271.33 464.88L1376.15 346.141C1374.3 345.214 1372.44 343.358 1370.58 341.503ZM1272.25 424.991C1262.05 406.438 1263.91 382.319 1279.68 365.622C1294.52 349.852 1316.78 345.214 1336.26 352.635L1272.25 424.991Z" fill="#3567B0"/>
<path d="M789.425 492.579C789.425 514.842 769.017 532.468 744.898 532.468C719.852 532.468 700.371 514.842 700.371 492.579C700.371 472.171 717.996 454.546 741.187 452.69C736.549 451.763 731.911 451.763 727.273 451.763C685.529 451.763 653.061 482.375 653.061 519.481C653.061 558.442 685.529 589.054 726.345 589.054C768.089 589.054 800.557 558.442 800.557 519.481C800.557 505.566 795.918 493.507 788.497 482.375C788.497 485.158 789.425 488.868 789.425 492.579Z" fill="url(#paint5_linear_504_161)"/>
<path d="M1451.5 567.5L1561 488.5L1460.5 385.5L1524 311C1485.04 263.69 1408.62 215.343 1346.47 213.488L1481.9 141.132L1387.28 0.129883L1216.6 196.79L1246.28 232.968C1219.38 244.1 1196.19 258.942 1176.71 277.495L1030.14 147.625L979.119 245.028L980.974 150.408L751.846 223.692L758.339 346.141L797.3 335.937L802.866 398.089C758.339 377.681 704.536 378.609 655.371 399.944C640.529 406.438 626.614 413.859 614.555 423.135C622.903 385.102 621.048 347.996 606.206 314.601C589.508 275.64 558.896 242.245 522.718 221.837C496.744 204.212 466.132 194.007 433.664 190.297C354.814 176.382 259.267 190.297 165.575 230.186C131.252 245.028 98.7847 261.725 70.0277 280.278L33.8496 303.469L56.1131 340.575L124.759 457.458L146.095 492.709L183.2 474.156L188.766 471.373L359.453 851.707L376.15 887.885L414.184 875.826L506.02 846.141L546.837 833.154L536.633 792.338L487.467 604.954C501.382 594.75 514.369 583.618 526.428 571.558C523.646 593.822 525.501 617.013 531.067 638.349C544.054 683.803 573.738 719.982 615.482 739.462C660.009 760.798 714.74 760.798 764.833 739.462C789.879 728.33 813.07 713.488 831.623 694.007L838.117 769.147L999.527 745.028V600.315L1336.26 767.291V606.809C1350.18 605.881 1423 584.376 1451.5 567.5ZM1379.86 62.282L1429.95 130L1287.1 200.501L1276.89 185.659C1276.89 186.586 1379.86 62.282 1379.86 62.282ZM434.592 585.473L491.178 804.397L399.341 834.082L210.102 411.076C199.898 416.642 180.417 425.918 163.72 434.267L95.0741 318.312C121.976 300.686 152.588 285.844 184.128 271.93C273.182 233.896 358.525 222.764 426.243 234.824C450.362 237.607 475.408 245.028 497.672 259.87C528.284 277.495 551.475 301.614 565.39 333.154C598.785 409.221 544.054 518.683 434.592 585.473ZM858.525 546.512C857.597 578.98 845.538 611.447 825.13 639.276C805.649 666.178 779.675 687.514 748.135 701.429C668.358 735.751 588.581 701.429 567.245 625.362C546.837 552.078 595.074 464.879 672.069 431.484C721.234 410.148 771.326 415.714 806.577 439.833C828.84 454.675 845.538 476.939 852.959 504.768C853.887 507.551 854.814 511.262 854.814 514.044C858.525 525.176 858.525 536.308 858.525 546.512ZM1293.59 701.429L958.711 534.453L959.638 709.777L873.367 721.837L866.874 649.481C893.775 604.026 903.052 549.295 889.137 500.13C881.716 473.228 867.801 449.109 848.321 430.557L836.261 283.061L797.3 293.265L795.445 256.16L934.592 214.416L942.94 357.273L1044.98 213.488L1146.09 309.035L1006.02 456.531L1137.75 508.479C1152.59 536.308 1174.85 559.499 1202.68 577.124C1229.58 593.822 1261.12 604.026 1293.59 606.809V701.429ZM1120.12 458.386L1073.74 440.761L1117.34 399.017C1114.55 418.497 1115.48 437.978 1120.12 458.386ZM1483.76 502.913C1451.29 529.814 1415.11 546.512 1366.87 558.571C1356.67 561.354 1345.54 563.21 1336.26 563.21C1259.27 570.631 1195.26 535.38 1171.14 478.794C1168.36 472.301 1165.58 464.879 1163.72 457.458C1152.59 409.221 1161.86 366.549 1185.98 332.226C1192.48 322.022 1200.83 313.673 1210.1 305.325C1232.37 284.917 1261.12 271.002 1293.59 262.653C1366.87 245.028 1430.88 267.291 1470.77 315.529L1331.62 463.952C1340.9 465.807 1355.74 463.024 1366.87 460.241C1400.27 451.892 1418.82 434.267 1434.59 415.714L1490.25 465.807L1506.95 480.649C1499.53 488.998 1492.11 496.419 1483.76 502.913Z" fill="url(#paint6_linear_504_161)"/>
<path d="M1350.32 475.501C1382.79 468.08 1400.42 451.382 1417.11 432.829C1405.05 443.033 1345.68 456.02 1335.48 458.803L1316 480.139C1324.35 480.139 1339.19 478.284 1350.32 475.501" fill="#C7A008"/>
<path d="M1490.4 494.981C1497.82 489.416 1509.88 482.922 1517.3 475.501L1438.45 405C1431.96 412.421 1427.32 424.481 1419.9 430.046L1490.4 494.981Z" fill="#C7A008"/>
<rect x="1153" y="861" width="382" height="377.077" rx="55" fill="#3368B0"/>
<path d="M1359.56 996.809V910.83C1359.56 907.358 1359.56 907.358 1363.14 907.358C1371.77 907.358 1380.34 907.304 1388.96 907.358C1411.69 907.467 1431.11 924.717 1433.93 947.283C1434.2 949.453 1434.31 951.677 1434.31 953.847C1434.31 982.651 1434.37 1011.46 1434.31 1040.26C1434.31 1063.04 1419.29 1081.43 1396.94 1085.93C1393.95 1086.53 1390.86 1086.69 1387.82 1086.75C1379.36 1086.86 1370.9 1086.8 1362.44 1086.8C1359.73 1086.8 1359.56 1086.64 1359.56 1083.87V996.809ZM1412.99 1006.09C1412.99 995.995 1405.07 988.076 1395.09 988.076C1385.17 988.076 1377.19 995.995 1377.14 1005.92C1377.08 1016.01 1385 1024.04 1394.98 1024.09C1404.97 1024.09 1412.94 1016.12 1412.99 1006.09ZM1341.93 997.243V1083.22C1341.93 1086.8 1341.93 1086.8 1338.41 1086.8C1325.77 1086.8 1313.07 1086.97 1300.43 1086.75C1276.68 1086.31 1257.26 1067.6 1255.79 1043.95C1255.68 1041.83 1255.57 1039.66 1255.57 1037.55V955.203C1255.57 946.415 1257.2 938.061 1261.76 930.521C1270.76 915.603 1284 907.738 1301.47 907.412C1313.89 907.195 1326.36 907.358 1338.79 907.358C1341.88 907.358 1341.93 907.412 1341.93 910.613V997.243ZM1327.23 922.059H1298.32C1297.29 922.059 1296.2 922.33 1295.17 922.547C1280.09 925.856 1270.17 938.332 1270.17 954.335C1270.11 982.76 1270.17 1011.24 1270.17 1039.66C1270.17 1041.83 1270.33 1044.11 1270.71 1046.23C1273.69 1061.74 1286.11 1071.99 1301.9 1072.1C1309.66 1072.16 1317.41 1072.1 1325.17 1072.1C1325.82 1072.1 1326.53 1071.99 1327.23 1071.99V922.059ZM1284.97 1162.85C1282.59 1171.37 1280.36 1179.29 1278.09 1187.21C1277.11 1190.68 1277.92 1190.3 1274.02 1190.3C1271.68 1190.3 1268.81 1190.9 1267.24 1189.76C1265.77 1188.68 1265.72 1185.64 1265.12 1183.47C1261.92 1172.29 1258.77 1161.06 1255.63 1149.89C1255.47 1149.35 1255.41 1148.81 1255.19 1147.83C1258.12 1147.83 1260.94 1147.77 1263.71 1147.88C1264.14 1147.88 1264.69 1148.97 1264.85 1149.62C1267.35 1158.84 1269.79 1168.12 1272.34 1177.83C1272.72 1176.74 1272.99 1176.04 1273.2 1175.33C1275.64 1166.87 1278.14 1158.46 1280.53 1149.94C1280.96 1148.32 1281.56 1147.61 1283.4 1147.67C1288.77 1147.77 1288.77 1147.67 1290.29 1152.82C1292.46 1160.31 1294.68 1167.79 1296.85 1175.28C1297.07 1175.93 1297.29 1176.58 1297.67 1177.94C1298.05 1176.58 1298.32 1175.82 1298.48 1175.01C1300.71 1166.6 1303.04 1158.14 1305.15 1149.67C1305.53 1148.1 1306.18 1147.61 1307.76 1147.67C1310.04 1147.77 1312.31 1147.72 1314.86 1147.72C1314.7 1148.53 1314.59 1149.13 1314.43 1149.73C1310.8 1162.58 1307.16 1175.39 1303.58 1188.24C1303.15 1189.71 1302.55 1190.36 1300.98 1190.25C1299.08 1190.09 1297.13 1190.09 1295.23 1190.25C1293.33 1190.41 1292.52 1189.76 1292.03 1187.86C1289.97 1180.1 1287.74 1172.4 1285.63 1164.7C1285.52 1164.27 1285.3 1163.83 1284.97 1162.85ZM1437.95 1147.94H1446.79V1164.32H1466.16V1147.83C1469.03 1147.83 1471.69 1147.77 1474.35 1147.94C1474.67 1147.94 1475.16 1149.24 1475.16 1149.94C1475.21 1160.31 1475.21 1170.72 1475.21 1181.08C1475.21 1183.58 1475.16 1186.07 1475.21 1188.57C1475.27 1189.87 1474.78 1190.36 1473.48 1190.3C1471.15 1190.25 1468.81 1190.3 1466.32 1190.3V1173.54H1446.74V1190.3H1439.03C1437.51 1190.3 1437.95 1189.06 1437.95 1188.24V1160.74V1147.94ZM1211.26 1187.1C1212.77 1184.34 1214.08 1182.06 1215.16 1180.05C1219.23 1181.14 1223.03 1182.6 1226.99 1183.09C1230.3 1183.52 1233.71 1182.87 1237.13 1182.6C1237.94 1182.55 1238.92 1182.17 1239.41 1181.62C1240.33 1180.48 1241.58 1179.07 1241.52 1177.83C1241.47 1176.74 1240.06 1175.17 1238.87 1174.73C1235.94 1173.7 1232.84 1173.22 1229.81 1172.46C1226.12 1171.53 1222.32 1170.72 1218.74 1169.47C1214.94 1168.17 1212.34 1165.51 1211.96 1161.28C1211.53 1156.78 1213.48 1153.42 1217.17 1151.03C1221.67 1148.05 1226.72 1147.07 1231.98 1147.29C1237.13 1147.5 1242.07 1148.59 1247.11 1150.6C1246.08 1153.09 1245.1 1155.48 1244.24 1157.65C1240.49 1156.83 1237.02 1155.75 1233.44 1155.37C1230.68 1155.04 1227.8 1155.59 1224.98 1155.86C1224.33 1155.91 1223.46 1156.18 1223.03 1156.62C1222.21 1157.48 1221.13 1158.57 1221.13 1159.6C1221.07 1160.52 1222.16 1161.93 1223.08 1162.26C1226.17 1163.29 1229.37 1163.89 1232.52 1164.75C1235.99 1165.68 1239.57 1166.49 1242.93 1167.74C1247.55 1169.42 1250.58 1172.46 1250.53 1177.88C1250.47 1183.41 1247.93 1187.27 1242.83 1189.27C1235.45 1192.2 1227.8 1192.04 1220.21 1190.19C1217.22 1189.44 1214.4 1188.19 1211.26 1187.1ZM1421.67 1175.71C1423.95 1177.72 1426.12 1179.62 1428.29 1181.52C1424.33 1189.06 1413.75 1193.29 1404.59 1191.17C1394.93 1188.95 1387.55 1180.16 1387.23 1170.45C1386.85 1159.6 1393.19 1150.43 1403.23 1147.39C1412.67 1144.52 1423.19 1148.32 1428.4 1156.56C1426.23 1158.52 1424.01 1160.47 1421.62 1162.53C1418.64 1158.3 1414.73 1155.91 1409.52 1156.02C1405.78 1156.13 1402.63 1157.59 1400.08 1160.36C1395.2 1165.68 1395.64 1173.81 1401.01 1178.69C1407.08 1184.23 1414.78 1183.14 1421.67 1175.71ZM1358.37 1156.94H1345.13V1147.88C1345.78 1147.83 1346.49 1147.77 1347.19 1147.77C1357.66 1147.77 1368.08 1147.83 1378.55 1147.72C1380.28 1147.72 1381.04 1148.15 1380.88 1149.94C1380.72 1151.57 1380.72 1153.2 1380.88 1154.83C1381.04 1156.62 1380.28 1157 1378.66 1156.94C1375.13 1156.83 1371.55 1156.89 1367.7 1156.89V1159.55C1367.7 1168.98 1367.65 1178.42 1367.75 1187.92C1367.75 1189.65 1367.37 1190.41 1365.53 1190.25C1363.9 1190.09 1362.27 1190.09 1360.65 1190.25C1358.8 1190.41 1358.42 1189.6 1358.42 1187.92C1358.48 1178.53 1358.48 1169.15 1358.48 1159.76C1358.37 1159 1358.37 1158.19 1358.37 1156.94ZM1325.5 1147.94H1334.77V1190.14H1325.5V1147.94ZM1452.92 1125.32C1452.92 1118.64 1458.29 1113.17 1464.91 1113.22C1471.42 1113.27 1476.73 1118.64 1476.79 1125.26C1476.84 1131.93 1471.36 1137.41 1464.8 1137.36C1458.18 1137.25 1452.97 1131.93 1452.92 1125.32ZM1471.69 1125.26C1471.69 1121.52 1468.43 1118.26 1464.69 1118.37C1461 1118.43 1457.96 1121.57 1457.96 1125.26C1457.96 1129.01 1460.95 1132.1 1464.69 1132.15C1468.43 1132.21 1471.69 1129.01 1471.69 1125.26ZM1272.17 1114.14C1275.1 1113.44 1277.06 1114.14 1278.74 1116.75C1281.23 1120.65 1284.27 1124.23 1287.42 1128.52V1114.09H1292.03C1292.08 1114.9 1292.14 1115.61 1292.14 1116.37C1292.14 1122.12 1292.19 1127.87 1292.08 1133.62C1292.08 1134.59 1291.65 1136.38 1291.21 1136.38C1289.59 1136.55 1287.8 1137.14 1286.44 1135.19C1283.84 1131.34 1280.91 1127.6 1278.14 1123.85C1277.81 1123.42 1277.43 1122.98 1276.68 1122.01V1136.44H1272.12C1272.17 1129.06 1272.17 1121.63 1272.17 1114.14ZM1233.28 1136.33C1230.3 1137.2 1228.45 1136.27 1226.88 1133.83C1224.27 1129.87 1221.29 1126.18 1218.09 1121.79V1136.38H1213.48V1114.09C1216.14 1113.6 1218.2 1113.76 1219.88 1116.37C1222.48 1120.38 1225.52 1124.07 1228.88 1127.81V1114.03H1233.33C1233.28 1121.52 1233.28 1128.9 1233.28 1136.33ZM1394.33 1114.03H1398.89V1136.22C1395.53 1137.14 1394.77 1136.87 1392.82 1134.21C1390.21 1130.74 1387.66 1127.27 1385.06 1123.8C1384.68 1123.31 1384.3 1122.88 1383.59 1122.06V1136.6C1382.24 1136.6 1381.1 1136.71 1379.9 1136.55C1379.52 1136.49 1378.87 1135.89 1378.87 1135.57C1378.82 1128.46 1378.82 1121.41 1378.82 1114.36C1382.45 1113.38 1383.16 1113.6 1385.27 1116.42C1388.15 1120.27 1391.03 1124.12 1394.33 1128.52V1114.03ZM1417.71 1125.26C1417.71 1122.06 1417.66 1118.86 1417.77 1115.66C1417.77 1115.06 1418.53 1114.03 1418.96 1114.03C1422.27 1113.98 1425.69 1113.76 1428.94 1114.25C1435.07 1115.17 1438.98 1120.22 1438.54 1126.13C1438.16 1131.83 1433.34 1136.38 1427.26 1136.6C1424.66 1136.71 1422 1136.55 1419.34 1136.65C1418.04 1136.71 1417.61 1136.22 1417.61 1134.92C1417.77 1131.66 1417.71 1128.46 1417.71 1125.26ZM1422.49 1125.21V1126.51C1422.6 1128.19 1422.7 1129.82 1422.87 1131.5C1424.98 1131.45 1427.15 1131.66 1429.16 1131.28C1431.87 1130.8 1433.77 1127.87 1433.72 1125.05C1433.61 1122.17 1431.65 1119.62 1428.83 1119.08C1427.26 1118.75 1425.58 1118.86 1423.95 1118.75C1422.81 1118.7 1422.43 1119.19 1422.49 1120.27V1125.21ZM1360.43 1113.93V1118.26H1347.85V1122.88H1359.45V1127.11H1347.9V1132.21H1360.38V1136.65H1347.79C1343.02 1136.65 1343.02 1136.65 1343.02 1131.83C1343.02 1126.56 1343.07 1121.3 1342.96 1116.04C1342.96 1114.47 1343.4 1113.93 1345.02 1113.98C1350.07 1114.03 1355.17 1113.93 1360.43 1113.93ZM1307.98 1118.92V1114.09H1326.74V1118.86H1320.02V1136.44H1315.14C1315.08 1135.73 1314.97 1134.97 1314.97 1134.21V1122.93C1314.92 1118.37 1315.57 1118.97 1311.07 1118.92H1307.98ZM1250.37 1113.93H1253.24C1253.78 1113.93 1254.33 1113.98 1255.09 1114.03V1136.44H1250.37V1113.93Z" fill="white"/>
<path d="M1283.46 961.224C1283.46 951.84 1291 944.191 1300.27 944.191C1309.6 944.191 1317.2 951.894 1317.14 961.224C1317.09 970.554 1309.6 978.04 1300.38 978.149C1291.1 978.257 1283.46 970.609 1283.46 961.224Z" fill="white"/>
<defs>
<linearGradient id="paint0_linear_504_161" x1="123.377" y1="496.512" x2="30.4452" y2="323.34" gradientUnits="userSpaceOnUse">
<stop stop-color="#0070B6"/>
<stop offset="1" stop-color="#1D2C5E"/>
</linearGradient>
<linearGradient id="paint1_linear_504_161" x1="1256.73" y1="142.727" x2="1374.68" y2="16.3451" gradientUnits="userSpaceOnUse">
<stop stop-color="#0070B6"/>
<stop offset="1" stop-color="#1D2C5E"/>
</linearGradient>
<linearGradient id="paint2_linear_504_161" x1="742.134" y1="353.432" x2="728.071" y2="235.269" gradientUnits="userSpaceOnUse">
<stop stop-color="#0070B6"/>
<stop offset="1" stop-color="#1D2C5E"/>
</linearGradient>
<linearGradient id="paint3_linear_504_161" x1="541.466" y1="492.792" x2="625.863" y2="658.776" gradientUnits="userSpaceOnUse">
<stop stop-color="#105FA1"/>
<stop offset="1" stop-color="#1D2C5E"/>
</linearGradient>
<linearGradient id="paint4_linear_504_161" x1="223.015" y1="436.141" x2="320.696" y2="662.579" gradientUnits="userSpaceOnUse">
<stop stop-color="#105FA1"/>
<stop offset="1" stop-color="#1D2C5E"/>
</linearGradient>
<linearGradient id="paint5_linear_504_161" x1="651.716" y1="520.26" x2="799.481" y2="520.26" gradientUnits="userSpaceOnUse">
<stop stop-color="#3C5AA6"/>
<stop offset="0.933" stop-color="#2B73B9"/>
<stop offset="1" stop-color="#2A75BB"/>
</linearGradient>
<linearGradient id="paint6_linear_504_161" x1="34.5639" y1="444.202" x2="2499.71" y2="444.202" gradientUnits="userSpaceOnUse">
<stop stop-color="#3C5AA6"/>
<stop offset="0.933" stop-color="#2B73B9"/>
<stop offset="1" stop-color="#2A75BB"/>
</linearGradient>
</defs>
</svg>
