<svg width="1921" height="1927" viewBox="0 0 1921 1927" fill="none" xmlns="http://www.w3.org/2000/svg">
<path fill-rule="evenodd" clip-rule="evenodd" d="M1472.24 1041H1920.93C1881.46 1536.89 1466.54 1927 960.5 1927C454.462 1927 39.5401 1536.89 0.0717773 1041H448.764C486.164 1290.04 701.032 1481 960.5 1481C1219.97 1481 1434.84 1290.04 1472.24 1041ZM1472.08 885H1920.85C1880.9 389.588 1466.2 0 960.5 0C454.802 0 40.098 389.588 0.151855 885H448.916C486.74 636.445 701.379 446 960.5 446C1219.62 446 1434.26 636.445 1472.08 885ZM607.547 885C643.396 723.093 787.807 602 960.5 602C1133.19 602 1277.6 723.093 1313.45 885H607.547ZM607.327 1041H1313.67C1278.2 1203.41 1133.55 1325 960.5 1325C787.451 1325 642.802 1203.41 607.327 1041Z" fill="#f8f9fa"/>
<path d="M1322 963.5C1322 1163.15 1160.15 1325 960.5 1325C760.849 1325 599 1163.15 599 963.5C599 763.849 760.849 602 960.5 602C1160.15 602 1322 763.849 1322 963.5Z" fill="#f8f9fa"/>
</svg>
